<svg height="2366" width="720" xmlns="http://www.w3.org/2000/svg">
<rect height="2366" fill="#555" width="720"></rect>
<text fill="#7f7" font-family="Courier New" font-size="12" xml:space="preserve">
<tspan x="10" y="26">20 megabytes installed</tspan>
<tspan x="10" y="42"></tspan>
<tspan x="10" y="58">node_modules</tspan>
<tspan x="10" y="74">├─┬ express@3.4.8 </tspan>
<tspan x="10" y="90">│ ├── buffer-crc32@0.2.1 </tspan>
<tspan x="10" y="106">│ ├─┬ commander@1.3.2 </tspan>
<tspan x="10" y="122">│ │ └── keypress@0.1.0 </tspan>
<tspan x="10" y="138">│ ├─┬ connect@2.12.0 </tspan>
<tspan x="10" y="154">│ │ ├── batch@0.5.0 </tspan>
<tspan x="10" y="170">│ │ ├── bytes@0.2.1 </tspan>
<tspan x="10" y="186">│ │ ├─┬ multiparty@2.2.0 </tspan>
<tspan x="10" y="202">│ │ │ ├── readable-stream@1.1.14 </tspan>
<tspan x="10" y="218">│ │ │ └── stream-counter@0.2.0 </tspan>
<tspan x="10" y="234">│ │ ├── negotiator@0.3.0 </tspan>
<tspan x="10" y="250">│ │ ├── pause@0.0.1 </tspan>
<tspan x="10" y="266">│ │ ├── qs@0.6.6 </tspan>
<tspan x="10" y="282">│ │ ├── raw-body@1.1.2 </tspan>
<tspan x="10" y="298">│ │ └── uid2@0.0.3 </tspan>
<tspan x="10" y="314">│ ├── cookie@0.1.0 </tspan>
<tspan x="10" y="330">│ ├── cookie-signature@1.0.1 </tspan>
<tspan x="10" y="346">│ ├── debug@0.8.1 </tspan>
<tspan x="10" y="362">│ ├── fresh@0.2.0 </tspan>
<tspan x="10" y="378">│ ├── merge-descriptors@0.0.1 </tspan>
<tspan x="10" y="394">│ ├── methods@0.1.0 </tspan>
<tspan x="10" y="410">│ ├── mkdirp@0.3.5 </tspan>
<tspan x="10" y="426">│ ├── range-parser@0.0.4 </tspan>
<tspan x="10" y="442">│ └─┬ send@0.1.4 </tspan>
<tspan x="10" y="458">│   └── mime@1.2.11 </tspan>
<tspan x="10" y="474">├── minimist@0.0.7 </tspan>
<tspan x="10" y="490">├─┬ socket.io@1.3.5 </tspan>
<tspan x="10" y="506">│ ├─┬ debug@2.1.0 </tspan>
<tspan x="10" y="522">│ │ └── ms@0.6.2 </tspan>
<tspan x="10" y="538">│ ├─┬ engine.io@1.5.1 </tspan>
<tspan x="10" y="554">│ │ ├── base64id@0.1.0 </tspan>
<tspan x="10" y="570">│ │ ├── debug@1.0.3 </tspan>
<tspan x="10" y="586">│ │ ├─┬ engine.io-parser@1.2.1 </tspan>
<tspan x="10" y="602">│ │ │ ├── after@0.8.1 </tspan>
<tspan x="10" y="618">│ │ │ ├── arraybuffer.slice@0.0.6 </tspan>
<tspan x="10" y="634">│ │ │ ├── base64-arraybuffer@0.1.2 </tspan>
<tspan x="10" y="650">│ │ │ ├── blob@0.0.2 </tspan>
<tspan x="10" y="666">│ │ │ ├── has-binary@0.1.5 </tspan>
<tspan x="10" y="682">│ │ │ └── utf8@2.0.0 </tspan>
<tspan x="10" y="698">│ │ └─┬ ws@0.5.0 </tspan>
<tspan x="10" y="714">│ │   ├── nan@1.4.3 </tspan>
<tspan x="10" y="730">│ │   ├── options@0.0.6 </tspan>
<tspan x="10" y="746">│ │   └── ultron@1.0.2 </tspan>
<tspan x="10" y="762">│ ├── has-binary-data@0.1.3 </tspan>
<tspan x="10" y="778">│ ├─┬ socket.io-adapter@0.3.1 </tspan>
<tspan x="10" y="794">│ │ ├── debug@1.0.2 </tspan>
<tspan x="10" y="810">│ │ ├── object-keys@1.0.1 </tspan>
<tspan x="10" y="826">│ │ └─┬ socket.io-parser@2.2.2 </tspan>
<tspan x="10" y="842">│ │   └── debug@0.7.4 </tspan>
<tspan x="10" y="858">│ ├─┬ socket.io-client@1.3.5 </tspan>
<tspan x="10" y="874">│ │ ├── backo2@1.0.2 </tspan>
<tspan x="10" y="890">│ │ ├── component-bind@1.0.0 </tspan>
<tspan x="10" y="906">│ │ ├── component-emitter@1.1.2 </tspan>
<tspan x="10" y="922">│ │ ├── debug@0.7.4 </tspan>
<tspan x="10" y="938">│ │ ├─┬ engine.io-client@1.5.1 </tspan>
<tspan x="10" y="954">│ │ │ ├── component-inherit@0.0.3 </tspan>
<tspan x="10" y="970">│ │ │ ├── debug@1.0.4 </tspan>
<tspan x="10" y="986">│ │ │ ├─┬ has-cors@1.0.3 </tspan>
<tspan x="10" y="1002">│ │ │ │ └── global@2.0.1 </tspan>
<tspan x="10" y="1018">│ │ │ ├── parsejson@0.0.1 </tspan>
<tspan x="10" y="1034">│ │ │ ├── parseqs@0.0.2 </tspan>
<tspan x="10" y="1050">│ │ │ ├── parseuri@0.0.4 </tspan>
<tspan x="10" y="1066">│ │ │ ├─┬ ws@0.4.31 </tspan>
<tspan x="10" y="1082">│ │ │ │ ├── commander@0.6.1 </tspan>
<tspan x="10" y="1098">│ │ │ │ ├── nan@0.3.2 </tspan>
<tspan x="10" y="1114">│ │ │ │ └── tinycolor@0.0.1 </tspan>
<tspan x="10" y="1130">│ │ │ └── xmlhttprequest@1.5.0 </tspan>
<tspan x="10" y="1146">│ │ ├── has-binary@0.1.6 </tspan>
<tspan x="10" y="1162">│ │ ├── object-component@0.0.3 </tspan>
<tspan x="10" y="1178">│ │ ├─┬ parseuri@0.0.2 </tspan>
<tspan x="10" y="1194">│ │ │ └─┬ better-assert@1.0.2 </tspan>
<tspan x="10" y="1210">│ │ │   └── callsite@1.0.0 </tspan>
<tspan x="10" y="1226">│ │ └── to-array@0.1.3 </tspan>
<tspan x="10" y="1242">│ └─┬ socket.io-parser@2.2.4 </tspan>
<tspan x="10" y="1258">│   ├── benchmark@1.0.0 </tspan>
<tspan x="10" y="1274">│   ├── debug@0.7.4 </tspan>
<tspan x="10" y="1290">│   └── json3@3.2.6 </tspan>
<tspan x="10" y="1306">├── to-array@0.1.4 </tspan>
<tspan x="10" y="1322">├─┬ util-inspect@0.1.8 </tspan>
<tspan x="10" y="1338">│ ├── array-map@0.0.0 </tspan>
<tspan x="10" y="1354">│ ├── array-reduce@0.0.0 </tspan>
<tspan x="10" y="1370">│ ├── foreach@2.0.4 </tspan>
<tspan x="10" y="1386">│ ├── indexof@0.0.1 </tspan>
<tspan x="10" y="1402">│ ├── isarray@0.0.1 </tspan>
<tspan x="10" y="1418">│ ├── json3@3.3.0 </tspan>
<tspan x="10" y="1434">│ └── object-keys@0.5.0 </tspan>
<tspan x="10" y="1450">└─┬ wd@0.3.11 </tspan>
<tspan x="10" y="1466">  ├─┬ archiver@0.12.0 </tspan>
<tspan x="10" y="1482">  │ ├─┬ glob@4.0.6 </tspan>
<tspan x="10" y="1498">  │ │ ├─┬ graceful-fs@3.0.11 </tspan>
<tspan x="10" y="1514">  │ │ │ └── natives@1.1.0 </tspan>
<tspan x="10" y="1530">  │ │ ├─┬ minimatch@1.0.0 </tspan>
<tspan x="10" y="1546">  │ │ │ ├── lru-cache@2.7.3 </tspan>
<tspan x="10" y="1562">  │ │ │ └── sigmund@1.0.1 </tspan>
<tspan x="10" y="1578">  │ │ └─┬ once@1.4.0 </tspan>
<tspan x="10" y="1594">  │ │   └── wrappy@1.0.2 </tspan>
<tspan x="10" y="1610">  │ ├─┬ lazystream@0.1.0 </tspan>
<tspan x="10" y="1626">  │ │ └── readable-stream@1.0.34 </tspan>
<tspan x="10" y="1642">  │ ├─┬ readable-stream@1.0.34 </tspan>
<tspan x="10" y="1658">  │ │ ├── core-util-is@1.0.2 </tspan>
<tspan x="10" y="1674">  │ │ ├── inherits@2.0.3 </tspan>
<tspan x="10" y="1690">  │ │ └── string_decoder@0.10.31 </tspan>
<tspan x="10" y="1706">  │ ├─┬ tar-stream@1.0.2 </tspan>
<tspan x="10" y="1722">  │ │ ├── end-of-stream@1.4.0 </tspan>
<tspan x="10" y="1738">  │ │ └── xtend@4.0.1 </tspan>
<tspan x="10" y="1754">  │ └─┬ zip-stream@0.4.1 </tspan>
<tspan x="10" y="1770">  │   ├─┬ compress-commons@0.1.6 </tspan>
<tspan x="10" y="1786">  │   │ ├─┬ crc32-stream@0.3.4 </tspan>
<tspan x="10" y="1802">  │   │ │ └── readable-stream@1.0.34 </tspan>
<tspan x="10" y="1818">  │   │ └── readable-stream@1.0.34 </tspan>
<tspan x="10" y="1834">  │   └── readable-stream@1.0.34 </tspan>
<tspan x="10" y="1850">  ├── async@0.9.2 </tspan>
<tspan x="10" y="1866">  ├── lodash@2.4.2 </tspan>
<tspan x="10" y="1882">  ├── q@1.0.1 </tspan>
<tspan x="10" y="1898">  ├─┬ request@2.46.0 </tspan>
<tspan x="10" y="1914">  │ ├── aws-sign2@0.5.0 </tspan>
<tspan x="10" y="1930">  │ ├─┬ bl@0.9.5 </tspan>
<tspan x="10" y="1946">  │ │ └── readable-stream@1.0.34 </tspan>
<tspan x="10" y="1962">  │ ├── caseless@0.6.0 </tspan>
<tspan x="10" y="1978">  │ ├── forever-agent@0.5.2 </tspan>
<tspan x="10" y="1994">  │ ├─┬ form-data@0.1.4 </tspan>
<tspan x="10" y="2010">  │ │ └─┬ combined-stream@0.0.7 </tspan>
<tspan x="10" y="2026">  │ │   └── delayed-stream@0.0.5 </tspan>
<tspan x="10" y="2042">  │ ├─┬ hawk@1.1.1 </tspan>
<tspan x="10" y="2058">  │ │ ├── boom@0.4.2 </tspan>
<tspan x="10" y="2074">  │ │ ├── cryptiles@0.2.2 </tspan>
<tspan x="10" y="2090">  │ │ ├── hoek@0.9.1 </tspan>
<tspan x="10" y="2106">  │ │ └── sntp@0.2.4 </tspan>
<tspan x="10" y="2122">  │ ├─┬ http-signature@0.10.1 </tspan>
<tspan x="10" y="2138">  │ │ ├── asn1@0.1.11 </tspan>
<tspan x="10" y="2154">  │ │ ├── assert-plus@0.1.5 </tspan>
<tspan x="10" y="2170">  │ │ └── ctype@0.5.3 </tspan>
<tspan x="10" y="2186">  │ ├── json-stringify-safe@5.0.1 </tspan>
<tspan x="10" y="2202">  │ ├── mime-types@1.0.2 </tspan>
<tspan x="10" y="2218">  │ ├── node-uuid@1.4.8 </tspan>
<tspan x="10" y="2234">  │ ├── oauth-sign@0.4.0 </tspan>
<tspan x="10" y="2250">  │ ├── qs@1.2.2 </tspan>
<tspan x="10" y="2266">  │ ├── stringstream@0.0.5 </tspan>
<tspan x="10" y="2282">  │ ├─┬ tough-cookie@2.3.2 </tspan>
<tspan x="10" y="2298">  │ │ └── punycode@1.4.1 </tspan>
<tspan x="10" y="2314">  │ └── tunnel-agent@0.4.3 </tspan>
<tspan x="10" y="2330">  ├── underscore.string@2.3.3 </tspan>
<tspan x="10" y="2346">  └── vargs@0.1.0</tspan>
</text>
</svg>
